<?xml version="1.0" encoding="iso-8859-1"?>
<!-- Uploaded to: SVG Repo, www.svgrepo.com, Generator: SVG Repo Mixer Tools -->
<svg fill="#000000" height="800px" width="800px" version="1.1" id="Layer_1" xmlns="http://www.w3.org/2000/svg" xmlns:xlink="http://www.w3.org/1999/xlink" 
	 viewBox="0 0 484.39 484.39" xml:space="preserve">
<g>
	<g>
		<g>
			<path d="M284.198,0h-64.24c-41.966,0-81.715,16.851-111.924,47.448C78.595,77.266,61.711,117.65,61.711,158.247v58.309
				l-19.572,97.859c-0.588,2.938,0.173,5.984,2.072,8.301c1.899,2.317,4.737,3.66,7.733,3.66h36.179
				c5.012,4.478,5.149,10.266,4.278,22.371c-1.208,16.801-3.034,42.192,35.191,56.092c1.095,0.398,2.252,0.602,3.417,0.602h108.597
				v78.948h20v-88.948c0-5.523-4.477-10-10-10H132.82c-22.386-8.631-21.617-19.299-20.469-35.26
				c0.924-12.85,2.189-30.448-15.327-42.126c-1.643-1.095-3.572-1.68-5.547-1.68H64.143l17.374-86.87
				c0.129-0.646,0.194-1.302,0.194-1.961v-59.299C81.711,83.309,145.02,20,219.958,20h64.24c76.23,0,138.247,62.017,138.247,138.247
				V484.39h20V158.247C442.445,70.989,371.456,0,284.198,0z"/>
			<path d="M378.087,247.078h-64.123v-78.831h64.123v-20h-64.123V84.123h-20v64.123h-78.831V84.123h-20v64.123H131.01v20h64.123
				v78.831H131.01v20h64.123v64.124h20v-64.124h78.831v64.124h20v-64.124h64.123V247.078z M293.964,247.078h-78.831v-78.831h78.831
				V247.078z"/>
			<path d="M155.717,138.597c16.413,0,29.767-13.353,29.767-29.766s-13.354-29.766-29.767-29.766
				c-16.413,0-29.766,13.353-29.766,29.766C125.952,125.244,139.304,138.597,155.717,138.597z M155.717,99.065
				c5.386,0,9.767,4.381,9.767,9.766s-4.381,9.766-9.767,9.766c-5.385,0-9.766-4.381-9.766-9.766
				C145.952,103.446,150.333,99.065,155.717,99.065z"/>
			<path d="M254.549,237.429c16.413,0,29.766-13.353,29.766-29.766c0-16.414-13.353-29.767-29.766-29.767
				s-29.767,13.353-29.767,29.767C224.782,224.076,238.136,237.429,254.549,237.429z M254.549,197.895
				c5.385,0,9.766,4.381,9.766,9.767c0,5.385-4.381,9.766-9.766,9.766c-5.386,0-9.767-4.381-9.767-9.766
				S249.163,197.895,254.549,197.895z"/>
			<path d="M353.38,276.727c-16.413,0-29.767,13.353-29.767,29.767c0,16.413,13.354,29.766,29.767,29.766
				c16.413,0,29.766-13.353,29.766-29.766C383.146,290.08,369.793,276.727,353.38,276.727z M353.38,316.26
				c-5.386,0-9.767-4.381-9.767-9.766c0-5.385,4.381-9.767,9.767-9.767c5.385,0,9.766,4.381,9.766,9.767
				C363.146,311.879,358.765,316.26,353.38,316.26z"/>
			<polygon points="362.321,179.638 348.438,193.52 334.556,179.638 320.414,193.78 334.296,207.662 320.414,221.544 
				334.556,235.687 348.439,221.805 362.321,235.687 376.463,221.544 362.582,207.663 376.463,193.78 			"/>
			<polygon points="241.854,142.984 255.736,129.102 269.618,142.984 283.76,128.842 269.878,114.96 283.76,101.078 269.618,86.935 
				255.736,100.817 241.854,86.935 227.711,101.078 241.593,114.96 227.711,128.842 			"/>
			<polygon points="175.728,274.714 161.846,288.597 147.964,274.714 133.822,288.857 147.704,302.739 133.822,316.622 
				147.964,330.763 161.846,316.881 175.728,330.763 189.871,316.622 175.989,302.739 189.871,288.857 			"/>
		</g>
	</g>
</g>
</svg>